<svg width="111" height="131" viewBox="0 0 111 131" fill="none" xmlns="http://www.w3.org/2000/svg">
<path d="M55.8875 7.59645L93.4239 53.634C93.5225 53.755 93.5389 53.8352 93.544 53.886C93.5509 53.9566 93.5393 54.0565 93.488 54.1645C93.4367 54.2725 93.3666 54.3446 93.3075 54.3839C93.265 54.412 93.1925 54.45 93.0364 54.45H17.9636C17.8075 54.45 17.735 54.412 17.6925 54.3839C17.6334 54.3447 17.5633 54.2725 17.512 54.1645C17.4607 54.0565 17.4491 53.9566 17.456 53.886C17.4611 53.8352 17.4775 53.755 17.5761 53.634L55.1125 7.59646C55.3126 7.35107 55.6874 7.35107 55.8875 7.59645Z" stroke="#36ABED" stroke-width="9"/>
<path d="M55.8875 59.9965L93.4239 106.034C93.5225 106.155 93.5389 106.235 93.544 106.286C93.5509 106.357 93.5393 106.456 93.488 106.564C93.4367 106.673 93.3666 106.745 93.3075 106.784C93.265 106.812 93.1925 106.85 93.0364 106.85H17.9636C17.8075 106.85 17.735 106.812 17.6925 106.784C17.6334 106.745 17.5633 106.673 17.512 106.565C17.4607 106.456 17.4491 106.357 17.456 106.286C17.4611 106.235 17.4775 106.155 17.5761 106.034L55.1125 59.9965C55.3126 59.7511 55.6874 59.7511 55.8875 59.9965Z" stroke="#36ABED" stroke-width="9"/>
</svg>
