<svg width="135" height="108" viewBox="0 0 135 108" fill="none" xmlns="http://www.w3.org/2000/svg">
<path d="M23.2 77.944L22.5096 78.6674L22.7994 78.944H23.2V77.944ZM0.0640006 55.864L-0.624828 55.1391L-1.38608 55.8624L-0.626404 56.5874L0.0640006 55.864ZM23.2 33.88V32.88H22.8007L22.5112 33.1551L23.2 33.88ZM34.24 33.88L34.9273 34.6063L36.7517 32.88H34.24V33.88ZM11.008 55.864L10.3207 55.1377L9.55476 55.8624L10.3191 56.5888L11.008 55.864ZM34.24 77.944V78.944H36.7438L34.9289 77.2191L34.24 77.944ZM23.8904 77.2206L0.754405 55.1406L-0.626404 56.5874L22.5096 78.6674L23.8904 77.2206ZM0.752829 56.5889L23.8888 34.6049L22.5112 33.1551L-0.624828 55.1391L0.752829 56.5889ZM23.2 34.88H34.24V32.88H23.2V34.88ZM33.5527 33.1537L10.3207 55.1377L11.6953 56.5903L34.9273 34.6063L33.5527 33.1537ZM10.3191 56.5888L33.5511 78.6688L34.9289 77.2191L11.6969 55.1391L10.3191 56.5888ZM34.24 76.944H23.2V78.944H34.24V76.944ZM85.282 0.567997L86.253 0.807244L86.5583 -0.432003H85.282V0.567997ZM58.978 107.32V108.32H59.7615L59.949 107.559L58.978 107.32ZM50.338 107.32L49.3668 107.082L49.0628 108.32H50.338V107.32ZM76.546 0.567997V-0.432003H75.7618L75.5748 0.329573L76.546 0.567997ZM84.311 0.32875L58.007 107.081L59.949 107.559L86.253 0.807244L84.311 0.32875ZM58.978 106.32H50.338V108.32H58.978V106.32ZM51.3092 107.558L77.5172 0.806421L75.5748 0.329573L49.3668 107.082L51.3092 107.558ZM76.546 1.568H85.282V-0.432003H76.546V1.568ZM99.9303 33.88V32.88H97.4186L99.2429 34.6063L99.9303 33.88ZM110.97 33.88L111.658 33.1537L111.368 32.88H110.97V33.88ZM134.202 55.864L134.891 56.5888L135.655 55.8624L134.89 55.1377L134.202 55.864ZM110.97 77.944V78.944H111.37L111.659 78.6688L110.97 77.944ZM99.9303 77.944L99.2413 77.2191L97.4265 78.944H99.9303V77.944ZM123.162 55.864L123.851 56.5888L124.615 55.8624L123.85 55.1377L123.162 55.864ZM99.9303 34.88H110.97V32.88H99.9303V34.88ZM110.283 34.6063L133.515 56.5903L134.89 55.1377L111.658 33.1537L110.283 34.6063ZM133.513 55.1391L110.281 77.2191L111.659 78.6688L134.891 56.5888L133.513 55.1391ZM110.97 76.944H99.9303V78.944H110.97V76.944ZM100.619 78.6688L123.851 56.5888L122.473 55.1391L99.2413 77.2191L100.619 78.6688ZM123.85 55.1377L100.618 33.1537L99.2429 34.6063L122.475 56.5903L123.85 55.1377Z" fill="#4A5568"/>
</svg>
