<svg width="65" height="63" viewBox="0 0 65 63" fill="none" xmlns="http://www.w3.org/2000/svg">
<path d="M32.9755 3.55369L38.5416 20.6844C39.2779 22.9505 41.3897 24.4848 43.7724 24.4848L61.7847 24.4848C61.9547 24.4848 62.0377 24.5316 62.0873 24.57C62.1522 24.6202 62.2205 24.7079 62.2603 24.8303C62.3 24.9527 62.2963 25.0638 62.2733 25.1425C62.2558 25.2028 62.2161 25.2895 62.0786 25.3893L47.5064 35.9767C45.5787 37.3772 44.7721 39.8597 45.5084 42.1259L51.0745 59.2566C51.127 59.4182 51.1081 59.5116 51.087 59.5707C51.0593 59.6479 50.997 59.74 50.8929 59.8156C50.7887 59.8912 50.6819 59.9221 50.6 59.9245C50.5372 59.9264 50.4425 59.9155 50.3051 59.8156L35.7328 49.2282C33.8051 47.8277 31.1949 47.8277 29.2672 49.2282L14.6949 59.8156C14.5575 59.9155 14.4628 59.9264 14.4 59.9245C14.3181 59.9221 14.2113 59.8912 14.1071 59.8156C14.003 59.74 13.9407 59.6479 13.913 59.5707C13.8919 59.5116 13.873 59.4182 13.9255 59.2566L19.4916 42.1259C20.2279 39.8597 19.4213 37.3772 17.4936 35.9767L2.92137 25.3893C2.78391 25.2894 2.74424 25.2028 2.72665 25.1425C2.70367 25.0638 2.69996 24.9527 2.73973 24.8303C2.7795 24.7079 2.8478 24.6202 2.91267 24.57C2.96231 24.5316 3.04536 24.4848 3.21526 24.4848L21.2276 24.4848C23.6103 24.4848 25.7221 22.9505 26.4584 20.6844L32.0245 3.55369C32.077 3.3921 32.1472 3.32759 32.199 3.29224C32.2668 3.24605 32.3713 3.2082 32.5 3.2082C32.6287 3.2082 32.7332 3.24605 32.801 3.29224C32.8528 3.32759 32.923 3.3921 32.9755 3.55369Z" stroke="#2D3748" stroke-width="5"/>
</svg>
